<svg xmlns="http://www.w3.org/2000/svg" xmlns:xlink="http://www.w3.org/1999/xlink" width="60" zoomAndPan="magnify" viewBox="0 0 45 44.999999" height="60" preserveAspectRatio="xMidYMid meet" version="1.0"><defs><clipPath id="e7d576288e"><path d="M 0 0.84375 L 45 0.84375 L 45 44.34375 L 0 44.34375 Z M 0 0.84375 " clip-rule="nonzero"/></clipPath></defs><g clip-path="url(#e7d576288e)"><path fill="#09080b" d="M 16.367188 30.515625 L 37.511719 30.515625 C 37.707031 30.515625 37.882812 30.460938 38.042969 30.34375 C 38.199219 30.230469 38.3125 30.078125 38.371094 29.894531 L 44.910156 10.121094 C 44.957031 9.984375 44.96875 9.839844 44.945312 9.699219 C 44.925781 9.554688 44.871094 9.421875 44.785156 9.304688 C 44.699219 9.1875 44.589844 9.09375 44.460938 9.027344 C 44.332031 8.960938 44.195312 8.925781 44.046875 8.925781 L 10.71875 8.925781 L 9.582031 5.496094 C 9.484375 5.203125 9.300781 4.988281 9.027344 4.847656 L 1.683594 1.046875 C 1.546875 0.976562 1.40625 0.9375 1.257812 0.925781 C 1.105469 0.910156 0.960938 0.925781 0.816406 0.972656 C 0.671875 1.019531 0.542969 1.089844 0.429688 1.1875 C 0.3125 1.285156 0.21875 1.398438 0.152344 1.535156 C 0.0820312 1.667969 0.0390625 1.808594 0.0273438 1.960938 C 0.015625 2.109375 0.03125 2.257812 0.078125 2.402344 C 0.125 2.542969 0.195312 2.671875 0.292969 2.789062 C 0.390625 2.902344 0.503906 2.996094 0.636719 3.066406 L 7.570312 6.652344 C 7.84375 7.480469 14.160156 26.550781 14.410156 27.300781 C 14.121094 28.007812 11.164062 35.238281 11.164062 35.238281 C 11.089844 35.414062 11.066406 35.59375 11.085938 35.78125 C 11.101562 35.972656 11.164062 36.144531 11.269531 36.300781 C 11.375 36.457031 11.511719 36.582031 11.679688 36.671875 C 11.847656 36.757812 12.023438 36.804688 12.214844 36.804688 L 14.074219 36.804688 C 13.859375 36.988281 13.660156 37.191406 13.488281 37.414062 C 13.3125 37.636719 13.160156 37.875 13.03125 38.125 C 12.90625 38.378906 12.804688 38.644531 12.734375 38.917969 C 12.660156 39.191406 12.617188 39.472656 12.597656 39.753906 C 12.582031 40.035156 12.597656 40.320312 12.636719 40.597656 C 12.679688 40.878906 12.746094 41.152344 12.84375 41.417969 C 12.941406 41.6875 13.066406 41.941406 13.214844 42.179688 C 13.363281 42.421875 13.535156 42.644531 13.730469 42.851562 C 13.925781 43.058594 14.136719 43.242188 14.371094 43.40625 C 14.601562 43.566406 14.851562 43.707031 15.109375 43.816406 C 15.371094 43.929688 15.640625 44.015625 15.917969 44.070312 C 16.195312 44.128906 16.476562 44.15625 16.757812 44.15625 C 17.042969 44.15625 17.324219 44.128906 17.601562 44.070312 C 17.878906 44.015625 18.148438 43.929688 18.410156 43.816406 C 18.667969 43.707031 18.914062 43.566406 19.148438 43.40625 C 19.378906 43.242188 19.59375 43.058594 19.789062 42.851562 C 19.984375 42.644531 20.15625 42.421875 20.304688 42.179688 C 20.453125 41.941406 20.574219 41.6875 20.671875 41.417969 C 20.769531 41.152344 20.839844 40.878906 20.882812 40.597656 C 20.921875 40.320312 20.933594 40.035156 20.917969 39.753906 C 20.902344 39.472656 20.859375 39.191406 20.785156 38.917969 C 20.710938 38.644531 20.613281 38.378906 20.484375 38.125 C 20.359375 37.875 20.207031 37.636719 20.03125 37.414062 C 19.855469 37.191406 19.660156 36.988281 19.441406 36.804688 L 30.617188 36.804688 C 30.402344 36.988281 30.203125 37.191406 30.03125 37.414062 C 29.855469 37.636719 29.703125 37.875 29.574219 38.125 C 29.449219 38.378906 29.347656 38.644531 29.277344 38.917969 C 29.203125 39.191406 29.160156 39.46875 29.140625 39.753906 C 29.125 40.035156 29.140625 40.320312 29.179688 40.597656 C 29.222656 40.878906 29.289062 41.152344 29.386719 41.417969 C 29.484375 41.6875 29.609375 41.941406 29.757812 42.179688 C 29.90625 42.421875 30.078125 42.644531 30.273438 42.851562 C 30.46875 43.058594 30.679688 43.242188 30.914062 43.40625 C 31.144531 43.566406 31.390625 43.703125 31.652344 43.816406 C 31.914062 43.929688 32.183594 44.015625 32.460938 44.070312 C 32.738281 44.128906 33.019531 44.15625 33.300781 44.15625 C 33.585938 44.15625 33.867188 44.128906 34.144531 44.070312 C 34.421875 44.015625 34.691406 43.929688 34.949219 43.816406 C 35.210938 43.703125 35.457031 43.566406 35.691406 43.40625 C 35.921875 43.242188 36.136719 43.058594 36.332031 42.851562 C 36.523438 42.644531 36.695312 42.421875 36.847656 42.179688 C 36.996094 41.941406 37.117188 41.6875 37.214844 41.417969 C 37.3125 41.152344 37.382812 40.878906 37.421875 40.597656 C 37.464844 40.320312 37.476562 40.035156 37.460938 39.753906 C 37.445312 39.46875 37.402344 39.191406 37.328125 38.917969 C 37.253906 38.644531 37.15625 38.378906 37.027344 38.125 C 36.902344 37.875 36.75 37.636719 36.574219 37.414062 C 36.398438 37.191406 36.203125 36.988281 35.984375 36.804688 L 38.273438 36.804688 C 38.421875 36.800781 38.566406 36.773438 38.703125 36.714844 C 38.839844 36.65625 38.960938 36.570312 39.066406 36.464844 C 39.171875 36.359375 39.25 36.238281 39.308594 36.097656 C 39.363281 35.960938 39.394531 35.816406 39.394531 35.667969 C 39.394531 35.519531 39.363281 35.375 39.308594 35.238281 C 39.25 35.097656 39.171875 34.976562 39.066406 34.871094 C 38.960938 34.765625 38.839844 34.679688 38.703125 34.621094 C 38.566406 34.5625 38.421875 34.535156 38.273438 34.53125 L 13.90625 34.53125 C 14.347656 33.453125 15.082031 31.660156 15.683594 30.191406 C 15.859375 30.40625 16.089844 30.515625 16.367188 30.515625 Z M 16.757812 42.332031 C 16.449219 42.332031 16.148438 42.273438 15.859375 42.15625 C 15.574219 42.035156 15.320312 41.867188 15.097656 41.644531 C 14.878906 41.425781 14.707031 41.171875 14.589844 40.882812 C 14.46875 40.597656 14.410156 40.296875 14.410156 39.984375 C 14.410156 39.675781 14.46875 39.375 14.589844 39.085938 C 14.707031 38.800781 14.878906 38.546875 15.097656 38.324219 C 15.320312 38.105469 15.574219 37.933594 15.859375 37.816406 C 16.148438 37.695312 16.449219 37.636719 16.757812 37.636719 C 17.070312 37.636719 17.371094 37.695312 17.65625 37.816406 C 17.945312 37.933594 18.199219 38.105469 18.417969 38.324219 C 18.640625 38.546875 18.808594 38.800781 18.929688 39.085938 C 19.046875 39.375 19.109375 39.675781 19.109375 39.984375 C 19.105469 40.296875 19.046875 40.597656 18.929688 40.882812 C 18.808594 41.171875 18.640625 41.425781 18.417969 41.644531 C 18.199219 41.867188 17.945312 42.035156 17.65625 42.15625 C 17.371094 42.273438 17.070312 42.332031 16.757812 42.332031 Z M 33.300781 42.332031 C 32.992188 42.332031 32.691406 42.273438 32.402344 42.15625 C 32.117188 42.035156 31.863281 41.867188 31.640625 41.644531 C 31.421875 41.425781 31.25 41.171875 31.132812 40.882812 C 31.011719 40.597656 30.953125 40.296875 30.953125 39.984375 C 30.953125 39.675781 31.011719 39.375 31.132812 39.085938 C 31.25 38.800781 31.421875 38.546875 31.640625 38.324219 C 31.859375 38.105469 32.113281 37.933594 32.402344 37.816406 C 32.691406 37.695312 32.988281 37.636719 33.300781 37.636719 C 33.613281 37.636719 33.914062 37.695312 34.199219 37.816406 C 34.488281 37.933594 34.742188 38.105469 34.960938 38.324219 C 35.183594 38.546875 35.351562 38.800781 35.472656 39.085938 C 35.589844 39.375 35.648438 39.675781 35.648438 39.984375 C 35.648438 40.296875 35.589844 40.597656 35.472656 40.882812 C 35.351562 41.171875 35.183594 41.425781 34.960938 41.644531 C 34.742188 41.867188 34.488281 42.035156 34.199219 42.15625 C 33.914062 42.273438 33.613281 42.332031 33.300781 42.332031 Z M 31.078125 17.183594 L 31.078125 22.335938 L 23.046875 22.335938 L 23.046875 17.183594 Z M 23.046875 15.367188 L 23.046875 10.746094 L 31.078125 10.746094 L 31.078125 15.367188 Z M 32.894531 17.183594 L 40.660156 17.183594 C 40.105469 18.863281 39.507812 20.664062 38.957031 22.335938 L 32.894531 22.335938 Z M 31.078125 24.152344 L 31.078125 28.699219 L 23.046875 28.699219 L 23.046875 24.152344 Z M 21.230469 22.335938 L 15.15625 22.335938 L 13.453125 17.183594 L 21.230469 17.183594 Z M 16.695312 27.695312 C 16.734375 27.582031 16.753906 27.464844 16.753906 27.34375 C 16.753906 27.222656 16.738281 27.101562 16.699219 26.984375 L 15.757812 24.152344 L 21.230469 24.152344 L 21.230469 28.699219 L 17.027344 28.699219 C 16.980469 28.5625 16.863281 28.210938 16.695312 27.695312 Z M 36.851562 28.699219 L 32.894531 28.699219 L 32.894531 24.152344 L 38.355469 24.152344 C 37.574219 26.515625 36.972656 28.339844 36.851562 28.699219 Z M 41.261719 15.367188 L 32.894531 15.367188 L 32.894531 10.746094 L 42.789062 10.746094 C 42.585938 11.359375 41.996094 13.148438 41.261719 15.367188 Z M 21.230469 10.746094 L 21.230469 15.367188 L 12.851562 15.367188 L 11.320312 10.746094 Z M 21.230469 10.746094 " fill-opacity="1" fill-rule="nonzero"/></g></svg>