<svg width="688" height="220" viewBox="0 0 688 220" fill="none" xmlns="http://www.w3.org/2000/svg">
<path d="M50.7372 66.4421L0.811796 141.087H51.1431L76.9176 97.2023H77.7294L103.504 141.087H157.894L107.969 66.6472L153.226 0H103.098L81.7884 36.092H80.9766L59.8699 0H5.68257L50.7372 66.4421Z" fill="#0A090B"/>
<path fill-rule="evenodd" clip-rule="evenodd" d="M164.796 0V141.087H209.648V87.5641H258.964V141.087H303.816V12.331L351.308 86.3337V141.087H396.159V86.3337L443.106 12.0931V141.087H487.957V95.5618H525.503C534.162 95.5618 541.806 93.5795 548.436 89.6148C555.201 85.6502 560.478 80.1133 564.266 73.0043C564.826 71.9712 565.345 70.9132 565.825 69.8301V141.087H688V107.251H610.676V85.7185H675.62V53.3177H610.676V33.8363H686.579V0H565.825V25.5361C565.404 24.5927 564.952 23.6682 564.469 22.7626C560.681 15.6535 555.404 10.1167 548.639 6.15204C542.009 2.05068 534.297 0 525.503 0H401.842L375.053 46.9606H374.241L347.452 0H258.964V51.4721H209.648V0H164.796ZM510.485 62.5458H487.957V33.4261H510.485C513.732 33.4261 516.37 33.973 518.4 35.0667C520.565 36.1604 522.12 37.8009 523.068 39.9883C524.15 42.039 524.691 44.7049 524.691 47.986C524.691 52.7709 523.473 56.3938 521.038 58.8546C518.738 61.3154 515.22 62.5458 510.485 62.5458Z" fill="#0A090B"/>
<path d="M23.8032 219.867C18.7796 219.867 14.4838 218.989 10.9157 217.234C7.34754 215.431 4.62449 212.656 2.74652 208.908C0.915508 205.16 0 200.393 0 194.605C0 186.066 2.06576 179.733 6.19728 175.606C10.3758 171.431 16.2444 169.344 23.8032 169.344C23.9852 169.344 25.2129 169.341 27.321 169.336C47.5752 169.291 149.1 169.062 185.343 169.344C193.816 169.344 197.693 170.72 199.444 171.479C202.73 172.902 205.312 175.037 207.19 177.883C209.115 180.729 210.078 184.311 210.078 188.628H199.514C199.514 186.351 199.045 184.43 198.106 182.864C197.214 181.299 195.922 180.113 194.232 179.306C192.589 178.452 190.664 178.025 188.458 178.025C185.453 178.025 182.964 178.618 180.993 179.804C179.068 180.99 177.636 182.745 176.697 185.07C175.805 187.347 175.359 190.146 175.359 193.467V195.673C175.359 199.088 175.828 201.958 176.767 204.283C177.706 206.56 179.115 208.292 180.993 209.478C182.918 210.616 185.382 211.185 188.387 211.185C190.735 211.185 192.777 210.782 194.514 209.976C196.251 209.169 197.589 207.983 198.528 206.418C199.467 204.852 199.937 202.931 199.937 200.654H210.078C210.078 204.971 209.139 208.552 207.261 211.399C205.43 214.245 202.871 216.38 199.584 217.803C197.832 218.537 193.816 219.867 185.343 219.867C149.158 220.138 47.8672 219.918 27.408 219.874L27.2185 219.874C25.1764 219.869 23.9858 219.867 23.8032 219.867Z" fill="#0A090B"/>
<path fill-rule="evenodd" clip-rule="evenodd" d="M242.014 219.013L260.606 170.198H273.564L292.156 219.013H280.818L277.367 209.406H256.31L252.859 219.013H242.014ZM259.338 200.867H274.339L270.043 188.841C269.855 188.32 269.62 187.703 269.339 186.991C269.104 186.232 268.846 185.402 268.564 184.501C268.282 183.599 268.001 182.722 267.719 181.868C267.484 180.966 267.249 180.16 267.015 179.448H266.592C266.357 180.35 266.052 181.417 265.677 182.651C265.301 183.837 264.925 184.999 264.55 186.137C264.174 187.228 263.869 188.13 263.634 188.841L259.338 200.867Z" fill="#0A090B"/>
<path d="M332.766 179.093V219.013H343.329V179.093H358.893V170.198H317.272V179.093H332.766Z" fill="#0A090B"/>
<path d="M414.616 219.867C409.592 219.867 405.297 218.989 401.729 217.234C398.16 215.431 395.437 212.656 393.559 208.908C391.728 205.161 390.813 200.393 390.813 194.605C390.813 186.066 392.879 179.733 397.01 175.606C401.189 171.431 407.057 169.344 414.616 169.344C418.748 169.344 422.457 170.055 425.743 171.479C429.029 172.902 431.612 175.037 433.49 177.883C435.414 180.729 436.377 184.311 436.377 188.628H425.813C425.813 186.351 425.344 184.43 424.405 182.864C423.513 181.299 422.222 180.113 420.532 179.306C418.888 178.452 416.963 178.025 414.757 178.025C411.752 178.025 409.264 178.618 407.292 179.804C405.367 180.99 403.935 182.745 402.996 185.07C402.104 187.347 401.658 190.146 401.658 193.467V195.673C401.658 199.088 402.128 201.958 403.067 204.283C404.006 206.56 405.414 208.292 407.292 209.478C409.217 210.616 411.682 211.185 414.686 211.185C417.034 211.185 419.076 210.782 420.813 209.976C422.55 209.169 423.888 207.983 424.827 206.418C425.766 204.852 426.236 202.931 426.236 200.654H436.377C436.377 204.971 435.438 208.552 433.56 211.399C431.729 214.245 429.17 216.38 425.884 217.803C422.597 219.179 418.841 219.867 414.616 219.867Z" fill="#0A090B"/>
<path d="M484.011 170.198H473.518V219.013H484.011V198.519H505.42V219.013H515.913V170.198H505.42V189.553H484.011V170.198Z" fill="#0A090B"/>
<path d="M598.182 170.198H608.675V219.013H598.182V170.198Z" fill="#0A090B"/>
<path d="M660.139 179.093V219.013H670.703V179.093H686.267V170.198H644.646V179.093H660.139Z" fill="#0A090B"/>
</svg>
