<svg xmlns="http://www.w3.org/2000/svg" xmlns:xlink="http://www.w3.org/1999/xlink" width="60" zoomAndPan="magnify" viewBox="0 0 45 44.999999" height="60" preserveAspectRatio="xMidYMid meet" version="1.0"><defs><clipPath id="0214fab4d8"><path d="M 0.375 0.75 L 44.625 0.75 L 44.625 45 L 0.375 45 Z M 0.375 0.75 " clip-rule="nonzero"/></clipPath><clipPath id="4d9d523ed8"><path d="M 22.5 0.75 C 10.28125 0.75 0.375 10.65625 0.375 22.875 C 0.375 35.09375 10.28125 45 22.5 45 C 34.71875 45 44.625 35.09375 44.625 22.875 C 44.625 10.65625 34.71875 0.75 22.5 0.75 Z M 22.5 0.75 " clip-rule="nonzero"/></clipPath><clipPath id="4eeb75cd5f"><path d="M 12.453125 12.828125 L 32.703125 12.828125 L 32.703125 33 L 12.453125 33 Z M 12.453125 12.828125 " clip-rule="nonzero"/></clipPath><clipPath id="5b72c59d98"><path d="M 31.488281 21.886719 L 23.527344 21.886719 L 23.527344 13.890625 C 23.527344 13.335938 23.070312 12.875 22.511719 12.875 C 21.953125 12.875 21.496094 13.335938 21.496094 13.890625 L 21.496094 21.855469 L 13.46875 21.855469 C 12.910156 21.855469 12.453125 22.3125 12.453125 22.871094 C 12.453125 23.425781 12.910156 23.886719 13.46875 23.886719 L 21.429688 23.886719 L 21.429688 31.847656 C 21.429688 32.40625 21.890625 32.863281 22.445312 32.863281 C 23.003906 32.863281 23.460938 32.40625 23.460938 31.847656 L 23.460938 23.953125 L 31.425781 23.953125 C 31.980469 23.953125 32.441406 23.492188 32.441406 22.9375 C 32.539062 22.347656 32.046875 21.886719 31.488281 21.886719 Z M 31.488281 21.886719 " clip-rule="nonzero"/></clipPath></defs><g clip-path="url(#0214fab4d8)"><g clip-path="url(#4d9d523ed8)"><path fill="#fdc031" d="M 0.375 0.75 L 44.625 0.75 L 44.625 45 L 0.375 45 Z M 0.375 0.75 " fill-opacity="1" fill-rule="nonzero"/></g></g><g clip-path="url(#4eeb75cd5f)"><g clip-path="url(#5b72c59d98)"><path fill="#09080b" d="M 12.453125 12.875 L 12.453125 32.863281 L 32.539062 32.863281 L 32.539062 12.875 Z M 12.453125 12.875 " fill-opacity="1" fill-rule="nonzero"/></g></g></svg>