<svg xmlns="http://www.w3.org/2000/svg" xmlns:xlink="http://www.w3.org/1999/xlink" width="60" zoomAndPan="magnify" viewBox="0 0 45 44.999999" height="60" preserveAspectRatio="xMidYMid meet" version="1.0"><defs><clipPath id="ea647dfdc5"><path d="M 0.917969 1 L 44 1 L 44 44.472656 L 0.917969 44.472656 Z M 0.917969 1 " clip-rule="nonzero"/></clipPath></defs><g clip-path="url(#ea647dfdc5)"><path fill="#09080b" d="M 43.308594 41.222656 L 30.894531 28.808594 C 33.175781 25.882812 34.429688 22.3125 34.429688 18.539062 C 34.429688 14.066406 32.6875 9.863281 29.523438 6.699219 C 22.996094 0.167969 12.371094 0.171875 5.84375 6.699219 C 2.679688 9.863281 0.9375 14.066406 0.9375 18.539062 C 0.9375 23.011719 2.679688 27.21875 5.84375 30.378906 C 9.105469 33.644531 13.394531 35.277344 17.683594 35.277344 C 21.316406 35.277344 24.941406 34.09375 27.953125 31.75 L 40.367188 44.164062 C 40.773438 44.570312 41.304688 44.773438 41.835938 44.773438 C 42.367188 44.773438 42.902344 44.570312 43.308594 44.164062 C 44.121094 43.351562 44.121094 42.035156 43.308594 41.222656 Z M 8.785156 27.441406 C 6.40625 25.0625 5.097656 21.902344 5.097656 18.539062 C 5.097656 15.179688 6.40625 12.015625 8.785156 9.640625 C 11.238281 7.1875 14.460938 5.960938 17.683594 5.960938 C 20.90625 5.960938 24.128906 7.1875 26.582031 9.640625 C 28.960938 12.015625 30.269531 15.179688 30.269531 18.539062 C 30.269531 21.902344 28.960938 25.0625 26.582031 27.441406 C 21.675781 32.347656 13.691406 32.347656 8.785156 27.441406 Z M 8.785156 27.441406 " fill-opacity="1" fill-rule="nonzero"/></g></svg>